<?xml version="1.0" encoding="utf-8"?>
<!-- Generator: Adobe Illustrator 16.0.0, SVG Export Plug-In . SVG Version: 6.00 Build 0)  -->
<!DOCTYPE svg PUBLIC "-//W3C//DTD SVG 1.1//EN" "http://www.w3.org/Graphics/SVG/1.1/DTD/svg11.dtd">
<svg version="1.1" id="Layer_1" xmlns="http://www.w3.org/2000/svg" xmlns:xlink="http://www.w3.org/1999/xlink" x="0px" y="0px"
	 width="60px" height="40px" viewBox="0 0 60 40" enable-background="new 0 0 60 40" xml:space="preserve">
<g id="MasterCard">
	<g>
		<path fill="#F3F3F3" d="M55,0H5C2.2,0,0,2.2,0,5v30c0,2.8,2.3,5,5,5h50c2.7,0,5-2.2,5-5V5C60,2.2,57.8,0,55,0L55,0z"/>
		<g>
			<path id="path2268" fill="#F8991D" d="M52.5,20c0,7.4-6,13.5-13.5,13.5c-7.4,0-13.5-6-13.5-13.5l0,0c0-7.4,6-13.5,13.5-13.5
				S52.5,12.5,52.5,20L52.5,20z"/>
			<path id="path1350" fill="#CB2026" d="M20.9,6.5C13.5,6.5,7.5,12.6,7.5,20s6,13.5,13.5,13.5c3.5,0,6.7-1.3,9.1-3.5l0,0l0,0
				c0.5-0.4,0.9-0.9,1.4-1.4h-2.8c-0.4-0.4-0.7-0.9-1-1.4h4.8c0.3-0.5,0.6-0.9,0.8-1.4H27c-0.2-0.5-0.4-0.9-0.6-1.4h7.5
				c0.399-1.3,0.699-2.8,0.699-4.3c0-1-0.1-2-0.3-2.9h-8.2c0.101-0.5,0.2-1,0.4-1.4H34c-0.2-0.5-0.4-1-0.6-1.4H27.1
				c0.2-0.5,0.5-1,0.801-1.4h4.8c-0.3-0.5-0.7-1-1-1.4H29c0.4-0.5,0.9-0.9,1.4-1.4C27.6,7.8,24.4,6.5,20.9,6.5L20.9,6.5z"/>
			<g>
				<g id="g13802" transform="translate(-13.74405,15.9939)">
					<path id="path13804" fill="#010101" d="M39.2,7.9l0.2-1.2c-0.1,0-0.2,0-0.4,0c-0.5,0-0.6-0.3-0.5-0.5L39,3.7h0.801L40,2.3
						h-0.699l0.1-0.8h-1.5c0,0-0.801,4.7-0.801,5.3C37.1,7.6,37.6,8,38.2,8C38.6,8.1,39,7.9,39.2,7.9z"/>
					<path id="path13806" fill="#010101" d="M39.6,5.5c0,2,1.301,2.5,2.5,2.5C43.2,8,43.7,7.8,43.7,7.8L44,6.4c0,0-0.9,0.4-1.6,0.4
						c-1.5,0-1.301-1.1-1.301-1.1h3c0,0,0.201-0.9,0.201-1.3c0-0.9-0.5-2.1-2.101-2.1C40.7,2.2,39.6,3.8,39.6,5.5z M42.1,3.5
						c0.801,0,0.701,0.9,0.701,1H41.2C41.2,4.4,41.4,3.5,42.1,3.5z"/>
					<path id="path13808" fill="#010101" d="M51.2,7.9l0.3-1.6c0,0-0.699,0.4-1.199,0.4c-1,0-1.4-0.8-1.4-1.6c0-1.7,0.9-2.6,1.9-2.6
						C51.5,2.5,52.1,2.9,52.1,2.9l0.201-1.5c0,0-0.701-0.5-1.4-0.5c-2.2,0-3.5,1.6-3.5,4.3c0,1.8,1,3,2.699,3
						C50.5,8.1,51.2,7.9,51.2,7.9z"/>
					<path id="path13810" fill="#010101" d="M31.301,2.3c-1,0-1.701,0.3-1.701,0.3L29.4,3.8c0,0,0.6-0.3,1.6-0.3
						c0.5,0,0.9,0.1,0.9,0.5c0,0.3,0,0.4,0,0.4s-0.4,0-0.6,0c-1.4,0-2.5,0.5-2.5,2.1C28.801,7.8,29.7,8,30.2,8
						c1,0,1.399-0.6,1.399-0.6v0.5H32.9l0.6-4C33.2,2.3,31.801,2.3,31.301,2.3z M31.5,5.5c0,0.2-0.1,1.4-0.9,1.4
						C30.2,6.9,30,6.6,30,6.4c0-0.4,0.2-0.9,1.301-0.9C31.5,5.4,31.5,5.5,31.5,5.5z"/>
					<path id="path13812" fill="#010101" d="M34.6,8c0.301,0,2.201,0.1,2.201-1.8c0-1.8-1.701-1.4-1.701-2.1
						c0-0.4,0.301-0.5,0.801-0.5c0.199,0,1,0.1,1,0.1L37.1,2.4c0,0-0.5-0.1-1.299-0.1C34.7,2.3,33.7,2.7,33.7,4.2
						c0,1.6,1.8,1.5,1.8,2.2c0,0.5-0.5,0.5-0.9,0.5c-0.699,0-1.299-0.2-1.299-0.2L33,7.8C33,7.9,33.4,8,34.6,8z"/>
					<path id="path13814" fill="#010101" d="M63.1,1.1L62.801,3c0,0-0.5-0.7-1.4-0.7c-1.6,0-2.4,1.6-2.4,3.4C59,6.9,59.6,8,60.801,8
						C61.7,8,62.1,7.4,62.1,7.4L62,7.9h1.4l1.1-6.8H63.1z M62.5,4.9c0,0.8-0.4,1.8-1.199,1.8c-0.5,0-0.801-0.4-0.801-1.1
						c0-1.1,0.5-1.8,1.1-1.8C62.2,3.7,62.5,4,62.5,4.9z"/>
					<path id="path13816" fill="#010101" d="M23.5,8l0.9-5.2L24.5,8h1l1.801-5.2L26.5,8H28l1.1-6.8h-2.299l-1.4,4.2V1.2h-2.1L22.1,8
						H23.5L23.5,8z"/>
					<path id="path13818" fill="#010101" d="M45.6,8C46,5.6,46.2,3.7,47.4,4.1C47.6,3.2,48,2.4,48.2,2c0,0-0.101-0.1-0.399-0.1
						c-0.601,0-1.5,1.3-1.5,1.3l0.1-0.8H45L44.2,8H45.6L45.6,8z"/>
					<g id="use14699" transform="translate(845.3001,0)">
						<path id="path13810_1_" fill="#010101" d="M-791.1,2.3c-1,0-1.7,0.3-1.7,0.3l-0.199,1.2c0,0,0.6-0.3,1.6-0.3
							c0.5,0,0.9,0.1,0.9,0.5c0,0.3,0,0.4,0,0.4s-0.4,0-0.601,0c-1.399,0-2.5,0.5-2.5,2.1c0,1.3,0.899,1.5,1.399,1.5
							c1,0,1.4-0.6,1.4-0.6v0.5h1.301l0.6-4C-789.1,2.3-790.499,2.3-791.1,2.3z M-790.8,5.5c0,0.2-0.1,1.4-0.9,1.4
							c-0.399,0-0.6-0.3-0.6-0.5c0-0.4,0.2-0.9,1.301-0.9C-790.8,5.4-790.9,5.5-790.8,5.5z"/>
					</g>
					<path id="use14701" fill="#010101" d="M57.7,8c0.2-1.7,0.7-4.2,1.8-3.9c0.2-0.9,0-0.9-0.4-0.9c-0.6,0-0.799,0-0.799,0l0.1-0.8
						H57.1L56.2,8H57.7L57.7,8z"/>
				</g>
				<path id="path4157" fill="#FFFFFF" d="M25.8,23.4l0.2-1.2c-0.1,0-0.2,0-0.4,0c-0.5,0-0.6-0.3-0.5-0.5l0.4-2.5h0.8l0.2-1.4h-0.7
					L25.9,17h-1.4c0,0-0.8,4.7-0.8,5.3c0,0.8,0.5,1.2,1.1,1.2C25.3,23.6,25.7,23.5,25.8,23.4z"/>
				<path id="path4155" fill="#FFFFFF" d="M26.3,21.1c0,2,1.3,2.5,2.5,2.5c1.101,0,1.5-0.2,1.5-0.2l0.3-1.4c0,0-0.8,0.4-1.5,0.4
					c-1.5,0-1.3-1.1-1.3-1.1h2.9c0,0,0.2-0.9,0.2-1.3c0-0.9-0.5-2.1-2-2.1C27.3,17.8,26.3,19.3,26.3,21.1z M28.8,19.1
					c0.8,0,0.7,0.9,0.7,1h-1.6C27.8,20,28,19.1,28.8,19.1z"/>
				<path id="path4151" fill="#FFFFFF" d="M37.9,23.4l0.3-1.6c0,0-0.7,0.4-1.2,0.4c-1,0-1.4-0.8-1.4-1.6c0-1.7,0.9-2.6,1.9-2.6
					c0.7,0,1.3,0.4,1.3,0.4l0.2-1.5c0,0-0.9-0.4-1.6-0.4c-1.7,0-3.301,1.4-3.301,4.1c0,1.8,0.9,3,2.601,3
					C37.1,23.6,37.9,23.4,37.9,23.4z"/>
				<path id="path4149" fill="#FFFFFF" d="M17.9,17.8c-1,0-1.7,0.3-1.7,0.3L16,19.3c0,0,0.6-0.3,1.6-0.3c0.5,0,0.9,0.1,0.9,0.5
					c0,0.3,0,0.4,0,0.4s-0.4,0-0.6,0c-1.2,0-2.5,0.5-2.5,2.1c0,1.3,0.899,1.5,1.399,1.5c1,0,1.4-0.7,1.5-0.7v0.5h1.3l0.601-4
					C19.9,17.9,18.4,17.8,17.9,17.8z M18.2,21c0,0.2-0.2,1.4-1,1.4c-0.4,0-0.601-0.3-0.601-0.5c0-0.4,0.2-0.9,1.301-0.9
					C18.1,21,18.2,21,18.2,21z"/>
				<path id="path4145" fill="#FFFFFF" d="M21.2,23.6c0.3,0,2.2,0.1,2.2-1.8c0-1.8-1.7-1.4-1.7-2.1c0-0.4,0.3-0.5,0.8-0.5
					c0.2,0,1,0.1,1,0.1l0.2-1.3c0,0-0.5-0.1-1.3-0.1c-1.101,0-2.101,0.4-2.101,1.9c0,1.6,1.8,1.5,1.8,2.2c0,0.5-0.5,0.5-0.899,0.5
					c-0.7,0-1.3-0.2-1.3-0.2l-0.2,1.3C19.6,23.4,20,23.6,21.2,23.6z"/>
				<path id="path4139" fill="#FFFFFF" d="M49.8,16.7l-0.3,1.9c0,0-0.5-0.7-1.4-0.7c-1.3,0-2.399,1.6-2.399,3.4
					c0,1.2,0.6,2.3,1.8,2.3c0.9,0,1.3-0.6,1.3-0.6l-0.1,0.5H50.1l1.101-6.8H49.8z M49.1,20.4c0,0.8-0.399,1.8-1.199,1.8
					c-0.5,0-0.801-0.4-0.801-1.1c0-1.1,0.5-1.8,1.101-1.8C48.8,19.2,49.1,19.6,49.1,20.4z"/>
				<path id="path4133" fill="#FFFFFF" d="M10.1,23.5l0.9-5.2l0.1,5.2h1l1.801-5.2L13.1,23.5h1.5l1.101-6.8h-2.3L12,20.9l-0.1-4.2
					H9.8l-1.1,6.8H10.1z"/>
				<path id="path4149_1_" fill="#FFFFFF" d="M41.2,17.8c-1,0-1.7,0.3-1.7,0.3l-0.2,1.2c0,0,0.601-0.3,1.601-0.3
					c0.5,0,0.899,0.1,0.899,0.5c0,0.3,0,0.4,0,0.4s-0.399,0-0.6,0c-1.2,0-2.5,0.5-2.5,2.1c0,1.3,0.899,1.5,1.399,1.5
					c1,0,1.4-0.7,1.5-0.7v0.5H42.9l0.6-4C43.2,17.9,41.7,17.8,41.2,17.8z M41.5,21c0,0.2-0.2,1.4-1,1.4c-0.4,0-0.6-0.3-0.6-0.5
					c0-0.4,0.199-0.9,1.3-0.9C41.4,21,41.4,21,41.5,21z"/>
				<path id="path4131_1_" fill="#FFFFFF" d="M44.3,23.5c0.4-2.4,0.5-4.3,1.5-4c0.2-0.9,0.3-1.3,0.5-1.7c0,0-0.1,0-0.3,0
					c-0.6,0-1.1,0.9-1.1,0.9l0.1-0.8h-1.3l-0.9,5.6H44.3z"/>
				<path id="path4131" fill="#FFFFFF" d="M32.3,23.5c0.4-2.4,0.5-4.3,1.5-4c0.2-0.9,0.3-1.3,0.5-1.7c0,0-0.1,0-0.3,0
					c-0.6,0-1.1,0.9-1.1,0.9L33,18h-1.3l-0.9,5.6h1.5V23.5z"/>
			</g>
		</g>
	</g>
</g>
</svg>
