<?xml version="1.0" encoding="utf-8"?>
<!-- Generator: Adobe Illustrator 16.0.0, SVG Export Plug-In . SVG Version: 6.00 Build 0)  -->
<!DOCTYPE svg PUBLIC "-//W3C//DTD SVG 1.1//EN" "http://www.w3.org/Graphics/SVG/1.1/DTD/svg11.dtd">
<svg version="1.1" id="Layer_1" xmlns="http://www.w3.org/2000/svg" xmlns:xlink="http://www.w3.org/1999/xlink" x="0px" y="0px"
	 width="60px" height="40px" viewBox="0 0 60 40" enable-background="new 0 0 60 40" xml:space="preserve">
<g id="VISA">
	<g>
		<path fill="#F3F3F3" d="M55,0H5C2.2,0,0,2.3,0,5v30c0,2.8,2.2,5,5,5h50c2.8,0,5-2.2,5-5V5C60,2.3,57.8,0,55,0L55,0z"/>
		<g>
			<polygon fill="#2A2B6D" points="23.3,26.6 27,26.6 29.3,13.2 25.6,13.2 			"/>
			<path fill="#2A2B6D" d="M36.7,18.7c-1.3-0.6-2.1-1-2.1-1.7c0-0.6,0.7-1.2,2.1-1.2c1.2,0,2.1,0.2,2.7,0.5l0.3,0.2l0.5-2.9
				c-0.7-0.3-1.9-0.6-3.3-0.6c-3.6,0-6.2,1.8-6.2,4.4c0,1.9,1.8,3,3.2,3.7c1.4,0.7,1.9,1.1,1.9,1.7c0,0.9-1.1,1.3-2.2,1.3
				c-1.5,0-2.2-0.2-3.4-0.7l-0.5-0.2l-0.5,3c0.9,0.4,2.4,0.7,4.1,0.7c3.9,0,6.4-1.8,6.4-4.6C39.8,20.8,38.8,19.7,36.7,18.7z"/>
			<path fill="#2A2B6D" d="M49.7,13.3h-2.8c-0.9,0-1.5,0.2-1.9,1.1l-5.4,12.3h3.8c0,0,0.6-1.7,0.8-2c0.4,0,4.2,0,4.7,0
				c0.1,0.5,0.4,2,0.4,2h3.4L49.7,13.3z M45.2,22c0.3-0.8,1.5-3.8,1.5-3.8s0.3-0.8,0.5-1.3l0.2,1.2c0,0,0.7,3.2,0.8,3.9H45.2z"/>
			<path fill="#2A2B6D" d="M20.2,13.3l-3.6,9.2l-0.4-1.9L15,14.4c-0.2-0.9-0.9-1.1-1.7-1.1H7.4v0.3c1.4,0.4,2.7,0.9,3.9,1.5
				l3.3,11.6h3.9l5.8-13.4H20.2z"/>
		</g>
	</g>
</g>
</svg>
