<?xml version="1.0" encoding="utf-8"?>
<!-- Generator: Adobe Illustrator 23.0.3, SVG Export Plug-In . SVG Version: 6.00 Build 0)  -->
<svg version="1.1" id="Layer_1" xmlns="http://www.w3.org/2000/svg" xmlns:xlink="http://www.w3.org/1999/xlink" x="0px" y="0px"
	 viewBox="0 0 60 40" style="enable-background:new 0 0 60 40;" xml:space="preserve">
<style type="text/css">
	.st0{fill:#F3F3F3;}
	.st1{fill:#F5CBAA;}
	.st2{fill:none;}
	.st3{fill:#E74444;}
	.st4{fill:#6A7073;}
	.st5{fill:#D9DBDD;}
</style>
<g id="American_Express">
	<g>
		<path class="st0" d="M54.9,0H5C2.3,0,0,2.2,0,5v29.9c0,2.7,2.2,5,5,5h49.9c2.7,0,5-2.2,5-5V5C59.9,2.2,57.6,0,54.9,0L54.9,0z"/>
	</g>
</g>
<path class="st1" d="M20.4,28.5v3.1h-4v-3.1H20.4z"/>
<rect y="14.9" class="st2" width="60" height="18.3"/>
<path class="st3" d="M58.5,5.6v23.9c0,1.2-0.9,2.2-2.1,2.2H16.7c-1.2,0-2.1-1-2.1-2.2V5.6c0-1.2,0.9-2.2,2.1-2.2h39.7
	C57.6,3.4,58.5,4.4,58.5,5.6z"/>
<path class="st4" d="M58.5,19.2v6.2H16.4v-6.2H58.5z"/>
<path class="st5" d="M54.5,11v4.1H35.4V11H54.5z"/>
<path class="st1" d="M22.5,39.8H0.3v-7.2c0-5.7,4.5-10.3,10-10.3v0l9.6-6.7c1.8-1.3,4.3-0.8,5.6,1.1c1.2,1.9,0.8,4.4-1.1,5.7l-8.1,6
	v3.1h24.1l-16,7.8C23.8,39.7,23.2,39.8,22.5,39.8L22.5,39.8z"/>
</svg>
