<?xml version="1.0" encoding="utf-8"?>
<!-- Generator: Adobe Illustrator 23.0.3, SVG Export Plug-In . SVG Version: 6.00 Build 0)  -->
<svg version="1.1" id="Layer_1" xmlns="http://www.w3.org/2000/svg" xmlns:xlink="http://www.w3.org/1999/xlink" x="0px" y="0px"
	 viewBox="0 0 60 40" style="enable-background:new 0 0 60 40;" xml:space="preserve">
<style type="text/css">
	.st0{fill:#F3F3F3;}
	.st1{fill:#379A6B;}
	.st2{fill:#44C086;}
	.st3{fill:#3BA673;}
	.st4{display:none;fill:#F5CBAA;}
	.st5{fill:#F5CBAA;}
</style>
<g id="American_Express">
	<g>
		<path class="st0" d="M54.9,0H5C2.3,0,0,2.2,0,5v29.9c0,2.7,2.2,5,5,5h49.9c2.7,0,5-2.2,5-5V5C59.9,2.2,57.6,0,54.9,0L54.9,0z"/>
	</g>
</g>
<path class="st1" d="M4.3,33.5l-0.6-4L3,26.1L5.4,8.8l10.9-1.9l35.9-6.4L54.1,12l2,12.3l-39.4,7L4.3,33.5z"/>
<path class="st2" d="M9.5,26l-2.7,0.5L5,15.5L7.7,15l-0.4-2.7l39.3-7L47,8l2.7-0.5l1.8,11L48.8,19l0.4,2.7l-39.3,7L9.5,26z"/>
<path class="st3" d="M57,7l-0.1,24.8L1.6,31.5L1.7,6.7L57,7z"/>
<path class="st2" d="M8.3,24.9l-2.9,0l0.1-11.4l2.9,0l0-2.9l41.9,0.2l0,2.9l2.9,0l-0.1,11.4l-2.9,0l0,2.9L8.3,27.7L8.3,24.9z"/>
<circle class="st3" cx="29.3" cy="19.3" r="4.8"/>
<path class="st4" d="M20.4,28.5v3.1h-4v-3.1H20.4z"/>
<path class="st5" d="M22.5,39.8H0.3v-7.2c0-5.7,4.5-10.3,10-10.3v0l9.6-6.7c1.8-1.3,4.3-0.8,5.6,1.1c1.2,1.9,0.8,4.4-1.1,5.7l-8.1,6
	v3.1h24.1l-16,7.8C23.8,39.7,23.2,39.8,22.5,39.8L22.5,39.8z"/>
</svg>
